<?xml version="1.0" encoding="UTF-8"?>
<svg width="512" height="512" viewBox="0 0 512 512" fill="none" xmlns="http://www.w3.org/2000/svg">
    <!-- Brain part -->
    <g transform="translate(96, 96) scale(0.8)">
        <path d="M280 150C280 150 300 130 340 130C380 130 400 150 400 190C400 230 380 250 380 250" stroke="#3B82F6" stroke-width="24" stroke-linecap="round"/>
        <path d="M132 150C132 150 112 130 72 130C32 130 12 150 12 190C12 230 32 250 32 250" stroke="#3B82F6" stroke-width="24" stroke-linecap="round"/>
        <path d="M380 250C380 250 400 270 400 310C400 350 380 370 340 370C300 370 280 350 280 350" stroke="#3B82F6" stroke-width="24" stroke-linecap="round"/>
        <path d="M32 250C32 250 12 270 12 310C12 350 32 370 72 370C112 370 132 350 132 350" stroke="#3B82F6" stroke-width="24" stroke-linecap="round"/>
        <path d="M206 100C206 100 186 80 206 40C226 0 266 0 286 20C306 40 286 80 286 80" stroke="#3B82F6" stroke-width="24" stroke-linecap="round"/>
        <path d="M286 420C286 420 306 440 286 480C266 520 226 520 206 500C186 480 206 440 206 440" stroke="#3B82F6" stroke-width="24" stroke-linecap="round"/>
    </g>
    
    <!-- Dumbbell parts -->
    <g transform="translate(256, 256)">
        <!-- Left weight -->
        <rect x="-180" y="-20" width="40" height="40" rx="5" fill="#2563EB"/>
        <!-- Right weight -->
        <rect x="140" y="-20" width="40" height="40" rx="5" fill="#2563EB"/>
        <!-- Bar -->
        <rect x="-140" y="-8" width="280" height="16" rx="8" fill="#2563EB"/>
    </g>
</svg> 